
<svg width="41px" height="68px" viewBox="0 0 41 68" version="1.1" xmlns="http://www.w3.org/2000/svg" xmlns:xlink="http://www.w3.org/1999/xlink">
    <!-- Generator: Sketch 50.2 (55047) - http://www.bohemiancoding.com/sketch -->
    <desc>Created with Sketch.</desc>
    <defs>
        <path d="M38.244015,105.586737 C59.3656012,105.586737 76.48803,101.492243 76.48803,96.4414291 C76.48803,93.0742197 62.4257016,60.9620951 34.3010448,0.105055336 C11.4336816,60.9620951 0,93.0742197 0,96.4414291 C0,101.492243 17.1224287,105.586737 38.244015,105.586737 Z" id="path-1"></path>
    </defs>
    <g id="Page-1" stroke="none" stroke-width="1" fill="none" fill-rule="evenodd">
        <g id="Desktop-HD" transform="translate(-568.000000, -358.000000)">
            <g id="Group-5" transform="translate(550.000000, 320.000000)">
                <g id="Asset-1" transform="translate(0.795282, 0.193581)">
                    <mask id="mask-2" fill="white">
                        <use xlink:href="#path-1"></use>
                    </mask>
                    <g id="Mask"></g>
                    <g mask="url(#mask-2)" fill-rule="nonzero">
                        <g transform="translate(17.000000, 38.000000)">
                            <path d="M29.7336482,23.1652773 C29.7336482,23.1652773 39.1245444,14.3206026 40.4363902,16.3957872 C41.7482361,18.4709719 37.7258517,27.6630344 38.2697878,31.8979652 C38.8137238,36.1328961 29.7336482,23.1652773 29.7336482,23.1652773 Z" id="Shape" fill="#A86828"></path>
                            <path d="M11.3883758,23.1652773 C11.3883758,23.1652773 1.99747952,14.3183171 0.685633701,16.3935018 C-0.626212114,18.4686865 3.39617227,27.660749 2.8522362,31.8956798 C2.30830013,36.1306106 11.3883758,23.1652773 11.3883758,23.1652773 Z" id="Shape" fill="#C9802E"></path>
                            <path d="M31.1506245,23.4875252 C31.1506245,23.4875252 38.1143774,16.9282961 39.0856919,18.4595447 C40.0570063,19.9907933 37.0767851,26.8128486 37.4858799,29.9553364 C37.8949747,33.0978242 31.1506245,23.4875252 31.1506245,23.4875252 Z" id="Shape" fill="#8F5C29"></path>
                            <path d="M9.97139946,23.4875252 C9.97139946,23.4875252 3.0076465,16.9282961 2.03633209,18.4595447 C1.06501768,19.9907933 4.04523884,26.8128486 3.63614406,29.9553364 C3.22704929,33.0978242 9.97139946,23.4875252 9.97139946,23.4875252 Z" id="Shape" fill="#B16D29"></path>
                            <path d="M24.148019,32.3550544 C40.8934794,7.74308993 19.7713905,0.994168867 19.7713905,0.994168867 C9.69028964,-2.26030577 -2.00890674,5.4393607 5.20395979,13.0773201 C9.93254688,4.16408201 23.5126651,16.2929422 9.62858261,32.3550544 L24.148019,32.3550544 Z" id="Shape" fill="#8F5C29"></path>
                            <path d="M10.8741505,62.3766687 L10.8741505,65.8665442 C10.8741505,69.4615503 13.2601558,72.3777789 16.2038098,72.3777789 L24.9113578,72.3777789 C27.8550118,72.3777789 30.2410171,69.4615503 30.2410171,65.8665442 L30.2410171,62.3766687 C30.2410171,58.7816626 27.8550118,55.865434 24.9113578,55.865434 L16.2038098,55.865434 C13.2555849,55.865434 10.8741505,58.7793772 10.8741505,62.3766687 Z" id="Shape" fill="#B16D29"></path>
                            <path d="M40.8934794,41.3825648 C40.8934794,51.02486 26.122644,57.5863746 21.8877132,59.6661301 C21.2020795,60.008947 19.7531069,60.3083404 19.056046,59.9655235 C14.8211152,57.8857679 0.228544567,51.0271455 0.228544567,41.3825648 C0.0209487556,33.9824842 3.85025092,27.0539285 10.2265464,23.2926596 C16.602842,19.5313906 24.519182,19.5313906 30.8954775,23.2926596 C37.271773,27.0539285 41.1010752,33.9824842 40.8934794,41.3825648 Z" id="Shape" fill="#C38648"></path>
                            <path d="M26.584304,45.1078412 C24.1571607,45.1078412 21.9882728,46.0220195 20.5347294,47.4732775 C19.0789005,46.0288758 16.9100125,45.1078412 14.4851547,45.1078412 C10.1062408,45.1078412 6.55465818,48.0949187 6.55465818,51.7813426 C6.55465818,55.4677664 10.1062408,58.4548439 14.4851547,58.4548439 C14.8380759,58.4525183 15.1905887,58.4303909 15.5410306,58.388566 C16.8687799,59.7017661 18.6698175,60.4243233 20.5370148,60.3929018 C22.4042121,60.4243233 24.2052497,59.7017661 25.532999,58.388566 C25.8834409,58.4303909 26.2359537,58.4525183 26.5888749,58.4548439 C30.9677888,58.4548439 34.5193714,55.4677664 34.5193714,51.7813426 C34.5193714,48.0949187 30.9655034,45.1078412 26.584304,45.1078412 Z" id="Shape" fill="#FBD2A6"></path>
                            <path d="M24.9113578,55.865434 L20.5872946,55.865434 L20.5872946,72.3777789 L24.9113578,72.3777789 C27.8550118,72.3777789 30.2410171,69.4615503 30.2410171,65.8665442 L30.2410171,62.3766687 C30.2478735,58.7793772 27.8618682,55.865434 24.9113578,55.865434 Z" id="Shape" fill="#8F5C29"></path>
                            <path d="M20.5872946,21.0512401 L20.5872946,60.0615122 C21.0364889,59.9932789 21.4741003,59.8633029 21.8877132,59.6752719 C26.122644,57.5863746 40.8934794,51.0271455 40.8934794,41.3917065 C40.8934953,30.1713513 31.8076339,21.0701508 20.5872946,21.0512401 Z" id="Shape" fill="#B16D29"></path>
                            <circle id="Oval" fill="#262626" cx="13.0224694" cy="39.6959059" r="2.37457805"></circle>
                            <circle id="Oval" fill="#262626" cx="28.0058512" cy="39.6959059" r="2.37457805"></circle>
                            <circle id="Oval" fill="#F1F1F2" cx="12.4282536" cy="38.9279961" r="1"></circle>
                            <circle id="Oval" fill="#F1F1F2" cx="27.2356561" cy="38.9279961" r="1"></circle>
                            <polygon id="Shape" fill="#F1F1F2" points="20.5347294 54.0530756 19.2343108 54.0530756 19.2343108 52.7846532 20.5347294 51.6922102"></polygon>
                            <path d="M23.3618256,62.634924 L17.7099185,62.634924 C15.8015714,62.634924 14.2543246,65.0209293 14.2543246,67.9622979 L14.2543246,70.8168195 C14.2571827,71.1994341 14.2877352,71.5813398 14.3457425,71.9595424 C14.9286715,72.2305417 15.5632598,72.3724276 16.2060953,72.3754935 L24.9113578,72.3754935 C25.5338745,72.3726876 26.1489057,72.2395606 26.7168599,71.9846823 C26.7768799,71.5982415 26.8082,71.2078865 26.8105632,70.8168195 L26.8105632,67.9622979 C26.8174195,65.0209293 25.2701728,62.634924 23.3618256,62.634924 Z" id="Shape" fill="#FBD2A6"></path>
                            <path d="M16.656328,62.090988 L16.656328,62.7537672 C16.656328,63.0352416 16.8845081,63.2634216 17.1659824,63.2634216 L17.9933138,63.2634216 C18.1587894,63.2634216 18.3174876,63.3291566 18.4344965,63.4461655 C18.5515055,63.5631744 18.6172404,63.7218726 18.6172404,63.8873483 L18.6172404,63.9650534 C18.6172404,64.1305291 18.5515055,64.2892273 18.4344965,64.4062362 C18.3174876,64.5232452 18.1587894,64.5889801 17.9933138,64.5889801 L16.2609459,64.5889801 C15.5642023,64.5889801 14.9993799,64.0241578 14.9993799,63.3274141 L14.9993799,62.0932734" id="Shape" fill="#B16D29"></path>
                            <path d="M23.3618256,62.634924 L20.5872946,62.634924 L20.5872946,72.3777789 L24.9113578,72.3777789 C25.5338745,72.374973 26.1489057,72.241846 26.7168599,71.9869677 C26.7768799,71.6005269 26.8082,71.2101719 26.8105632,70.819105 L26.8105632,67.9622979 C26.8174195,65.0209293 25.2701728,62.634924 23.3618256,62.634924 Z" id="Shape" fill="#E8B987"></path>
                            <path d="M26.584304,45.1078412 C24.3606599,45.0747805 22.210879,45.9055266 20.5872946,47.4252831 L20.5872946,60.3906164 C22.436165,60.409274 24.2158666,59.6885072 25.5307136,58.388566 C25.8811555,58.4303909 26.2336682,58.4525183 26.5865895,58.4548439 C30.9655034,58.4548439 34.517086,55.4677664 34.517086,51.7813426 C34.517086,48.0949187 30.9655034,45.1078412 26.584304,45.1078412 Z" id="Shape" fill="#E8B987"></path>
                            <polygon id="Shape" fill="#F1F1F2" points="21.8877132 54.0530756 20.5872946 54.0530756 20.5872946 51.6922102 21.8877132 52.7160898"></polygon>
                            <path d="M19.1246094,53.0223396 C18.5029681,53.0223396 17.8881833,52.6406701 17.2962528,51.8796167 L17.753342,51.5139454 C18.2607109,52.1561556 18.7475108,52.4578345 19.2000291,52.4281237 C19.7599633,52.3801293 20.1667726,51.8087679 20.2856158,51.6213614 L20.2856158,48.4331647 L20.8775462,48.4331647 L20.8775462,51.7676299 L20.8409791,51.8339078 C20.8181246,51.8773313 20.2421923,52.9217799 19.2411671,53.0063414 L19.1246094,53.0223396 Z" id="Shape" fill="#404041"></path>
                            <path d="M22.0362672,53.0109123 C21.4123405,53.0109123 20.8409791,52.6223866 20.3404665,51.8544768 L20.8364082,51.5299435 C21.2226485,52.1195885 21.6271724,52.4189819 22.0385526,52.4189819 C22.7516117,52.4189819 23.3458275,51.5390853 23.3526839,51.5299435 L23.8486256,51.8544768 C23.8120584,51.9024712 23.0830013,53.0109123 22.0362672,53.0109123 Z" id="Shape" fill="#404041"></path>
                            <path d="M22.3013789,47.2858709 L21.1152326,49.342772 C21.0003037,49.5406867 20.7887335,49.6624833 20.5598693,49.6624833 C20.331005,49.6624833 20.1194348,49.5406867 20.004506,49.342772 L18.8183597,47.2858709 C18.704295,47.0873663 18.7045313,46.8431491 18.81898,46.6448656 C18.9334287,46.4465821 19.1447807,46.3242203 19.3737229,46.3236983 L21.7460156,46.3236983 C21.9749579,46.3242203 22.1863098,46.4465821 22.3007585,46.6448656 C22.4152072,46.8431491 22.4154435,47.0873663 22.3013789,47.2858709 Z" id="Shape" fill="#262626"></path>
                            <path d="M24.4131307,62.090988 L24.4131307,62.7537672 C24.4131307,62.888936 24.3594351,63.0185686 24.2638563,63.1141473 C24.1682776,63.209726 24.038645,63.2634216 23.9034763,63.2634216 L23.0830013,63.2634216 C22.7384161,63.2634216 22.4590746,63.5427631 22.4590746,63.8873483 L22.4590746,63.9650534 C22.4603336,64.3087458 22.7393066,64.586697 23.0830013,64.5866947 L24.8153691,64.5866947 C25.5121128,64.5866947 26.0769351,64.0218723 26.0769351,63.3251286 L26.0769351,62.090988" id="Shape" fill="#955925"></path>
                        </g>
                    </g>
                </g>
            </g>
        </g>
    </g>
</svg>