<?xml version="1.0" encoding="UTF-8"?>
<svg width="1174px" height="301px" viewBox="0 0 1174 301" version="1.1" xmlns="http://www.w3.org/2000/svg" xmlns:xlink="http://www.w3.org/1999/xlink">
    <!-- Generator: Sketch 50.2 (55047) - http://www.bohemiancoding.com/sketch -->
    <title>Group 7</title>
    <desc>Created with Sketch.</desc>
    <defs></defs>
    <g id="Page-1" stroke="none" stroke-width="1" fill="none" fill-rule="evenodd">
        <g id="Desktop-HD" transform="translate(-136.000000, -723.000000)">
            <g id="Group-7" transform="translate(100.000000, 723.000000)">
                <circle id="Oval" fill="#7CA18E" cx="597" cy="285.9297" r="274.501577"></circle>
                <circle id="Oval" fill="#8EB7A2" cx="320.92719" cy="449.247791" r="320.710764"></circle>
                <circle id="Oval" fill="#A6C5B5" cx="878.454616" cy="444.594397" r="360.629517"></circle>
                <g id="Group-2" transform="translate(142.694437, 117.210372)">
                    <ellipse id="Oval-3" fill-opacity="0.221014493" fill="#5D5551" cx="28.8516867" cy="79.1471945" rx="12.6111918" ry="7.07355636"></ellipse>
                    <g id="Group">
                        <circle id="Oval-4" fill="#7CA18E" cx="29.0060939" cy="28.7558976" r="28.461799"></circle>
                        <polygon id="Triangle-2" fill="#5D5551" points="28.8520259 14.9794324 30.8014642 79.9271624 26.9025876 79.9271624"></polygon>
                        <polygon id="Path-3" fill="#5D5551" points="29.5106537 47.8335529 50.6617652 39.1680174 29.5106537 50.2848644"></polygon>
                        <polygon id="Path-3" fill="#5D5551" points="29.3495214 39.1680111 49.0155252 29.8554052 29.3495214 42.3574234"></polygon>
                        <polygon id="Path-3-Copy-3" fill="#5D5551" points="28.7081873 31.8311032 44.2536596 23.2898647 28.7081873 34.756335"></polygon>
                        <polygon id="Path-3" fill="#5D5551" points="28.8833283 23.569257 39.5602235 18.4556448 28.8833283 25.6193379"></polygon>
                        <polygon id="Path-3" fill="#5D5551" transform="translate(18.100082, 43.947508) scale(-1, 1) translate(-18.100082, -43.947508) " points="7.73545721 47.0348395 28.4647076 38.0484691 7.73545721 49.8465467"></polygon>
                        <polygon id="Path-3-Copy-2" fill="#5D5551" transform="translate(19.557895, 35.832021) scale(-1, 1) translate(-19.557895, -35.832021) " points="10.3528535 39.5104568 28.7629362 28.8035458 10.3528535 42.8604965"></polygon>
                        <polygon id="Path-3-Copy" fill="#5D5551" transform="translate(21.164805, 28.886750) scale(-1, 1) translate(-21.164805, -28.886750) " points="13.2183979 31.9726633 29.1112117 23.5420946 13.2183979 34.2314044"></polygon>
                        <polygon id="Path-3-Copy-4" fill="#5D5551" transform="translate(24.854779, 22.570826) scale(-1, 1) translate(-24.854779, -22.570826) " points="20.8382612 24.6806823 28.8712961 18.9166552 20.8382612 26.2249963"></polygon>
                    </g>
                </g>
                <g id="Group-2" transform="translate(216.305239, 82.947747)">
                    <ellipse id="Oval-3" fill-opacity="0.221014493" fill="#5D5551" cx="24.2607655" cy="66.5531811" rx="10.6044812" ry="5.94800208"></ellipse>
                    <g id="Group">
                        <circle id="Oval-4" fill="#B9D7C7" cx="24.3906033" cy="24.1802185" r="23.9329174"></circle>
                        <polygon id="Triangle-2" fill="#5D5551" points="24.2610508 12.595884 25.9002917 67.2090394 22.6218099 67.2090394"></polygon>
                        <polygon id="Path-3" fill="#5D5551" points="24.8148768 40.2222104 42.6003935 32.9355472 24.8148768 42.2834658"></polygon>
                        <polygon id="Path-3" fill="#5D5551" points="24.6793841 32.9355419 41.2161056 25.1047709 24.6793841 35.6174504"></polygon>
                        <polygon id="Path-3-Copy-3" fill="#5D5551" points="24.1401 26.7660931 37.2119548 19.5839486 24.1401 29.2258579"></polygon>
                        <polygon id="Path-3" fill="#5D5551" points="24.2873723 19.8188835 33.2653449 15.5189565 24.2873723 21.5427527"></polygon>
                        <polygon id="Path-3" fill="#5D5551" transform="translate(15.219972, 36.954518) scale(-1, 1) translate(-15.219972, -36.954518) " points="6.50458034 39.5505894 23.9353631 31.994143 6.50458034 41.9148937"></polygon>
                        <polygon id="Path-3-Copy-2" fill="#5D5551" transform="translate(16.445815, 30.130379) scale(-1, 1) translate(-16.445815, -30.130379) " points="8.70549281 33.2234971 24.1861371 24.2202849 8.70549281 36.0404738"></polygon>
                        <polygon id="Path-3-Copy" fill="#5D5551" transform="translate(17.797031, 24.290249) scale(-1, 1) translate(-17.797031, -24.290249) " points="11.1150678 26.885128 24.4789945 19.7960433 11.1150678 28.784455"></polygon>
                        <polygon id="Path-3-Copy-4" fill="#5D5551" transform="translate(20.899851, 18.979324) scale(-1, 1) translate(-20.899851, -18.979324) " points="17.5224476 20.7534573 24.2772547 15.9066103 17.5224476 22.0520378"></polygon>
                    </g>
                </g>
                <g id="Group-2" transform="translate(441.487011, 170.078522)">
                    <ellipse id="Oval-3" fill-opacity="0.221014493" fill="#5D5551" cx="36.0052693" cy="98.7712117" rx="15.7380524" ry="8.82739731"></ellipse>
                    <g id="Group">
                        <circle id="Oval-4" fill="#ADCABB" cx="36.1979608" cy="35.8857299" r="35.5187116"></circle>
                        <polygon id="Triangle-2" fill="#5D5551" points="36.0056926 18.6934825 38.4384811 99.7445673 33.5729041 99.7445673"></polygon>
                        <polygon id="Path-3" fill="#5D5551" points="36.8276227 59.6935622 63.2230108 48.8794652 36.8276227 62.75266"></polygon>
                        <polygon id="Path-3" fill="#5D5551" points="36.6265388 48.8794573 61.1685966 37.2578531 36.6265388 52.8596631"></polygon>
                        <polygon id="Path-3-Copy-3" fill="#5D5551" points="35.8261902 39.7234122 55.2260583 29.0644308 35.8261902 43.3739356"></polygon>
                        <polygon id="Path-3" fill="#5D5551" points="36.0447562 29.4130965 49.3689162 23.0315984 36.0447562 31.9714813"></polygon>
                        <polygon id="Path-3" fill="#5D5551" transform="translate(22.587877, 54.843998) scale(-1, 1) translate(-22.587877, -54.843998) " points="9.65341206 58.6968132 35.5223413 47.4823324 9.65341206 62.2056643"></polygon>
                        <polygon id="Path-3-Copy-2" fill="#5D5551" transform="translate(24.407144, 44.716331) scale(-1, 1) translate(-24.407144, -44.716331) " points="12.9197742 49.3068101 35.8945137 35.9451922 12.9197742 53.4874698"></polygon>
                        <polygon id="Path-3-Copy" fill="#5D5551" transform="translate(26.412476, 36.049026) scale(-1, 1) translate(-26.412476, -36.049026) " points="16.4958112 39.9000712 36.3291417 29.3791994 16.4958112 42.718852"></polygon>
                        <polygon id="Path-3-Copy-4" fill="#5D5551" transform="translate(31.017355, 28.167111) scale(-1, 1) translate(-31.017355, -28.167111) " points="26.0049686 30.8000923 36.0297408 23.6069132 26.0049686 32.7273086"></polygon>
                    </g>
                </g>
                <g id="Group-3" transform="translate(675.205888, 0.000000)">
                    <ellipse id="Oval-3" fill-opacity="0.314141757" fill="#5D5551" cx="17.2963123" cy="46.8570228" rx="8.00211039" ry="4.56580347"></ellipse>
                    <g id="Group-Copy" transform="translate(0.326861, 0.178543)">
                        <circle id="Oval-4" fill="#A6C5B5" cx="17.0140041" cy="16.8672473" r="16.6947389"></circle>
                        <polygon id="Triangle-2" fill="#5D5551" points="16.9236329 8.78643382 18.0671082 46.8825989 15.7801576 46.8825989"></polygon>
                        <polygon id="Path-3" fill="#5D5551" points="17.3099619 28.0575615 29.7164962 22.9746484 17.3099619 29.4954188"></polygon>
                        <polygon id="Path-3" fill="#5D5551" points="17.2154471 22.9746447 28.7508669 17.5121816 17.2154471 24.8454472"></polygon>
                        <polygon id="Path-3-Copy-3" fill="#5D5551" points="16.839262 18.67106 25.9577159 13.6610553 16.839262 20.3869031"></polygon>
                        <polygon id="Path-3" fill="#5D5551" points="16.9419939 13.8249375 23.2047033 10.8254636 16.9419939 15.0274463"></polygon>
                        <polygon id="Path-3" fill="#5D5551" transform="translate(10.616903, 25.778138) scale(-1, 1) translate(-10.616903, -25.778138) " points="4.53736035 27.589063 16.6964449 22.3179588 4.53736035 29.2383163"></polygon>
                        <polygon id="Path-3-Copy-2" fill="#5D5551" transform="translate(11.472007, 21.017865) scale(-1, 1) translate(-11.472007, -21.017865) " points="6.07263741 23.1755118 16.8713759 16.8951961 6.07263741 25.140533"></polygon>
                        <polygon id="Path-3-Copy" fill="#5D5551" transform="translate(12.414566, 16.944001) scale(-1, 1) translate(-12.414566, -16.944001) " points="7.7534699 18.7540944 17.0756626 13.8090049 7.7534699 20.0789963"></polygon>
                        <polygon id="Path-3-Copy-4" fill="#5D5551" transform="translate(14.578981, 13.239291) scale(-1, 1) translate(-14.578981, -13.239291) " points="12.2230267 14.4768624 16.9349362 11.0958769 12.2230267 15.3827052"></polygon>
                    </g>
                </g>
                <g id="Group-3" transform="translate(469.495240, 40.090676)">
                    <ellipse id="Oval-3" fill-opacity="0.314141757" fill="#5D5551" cx="20.3624883" cy="55.1635264" rx="9.42067167" ry="5.37519896"></ellipse>
                    <g id="Group-Copy" transform="translate(0.384804, 0.210193)">
                        <circle id="Oval-4" fill="#678576" cx="20.0301343" cy="19.8573614" r="19.6542719"></circle>
                        <polygon id="Triangle-2" fill="#5D5551" points="19.9237428 10.3440348 21.2699258 55.1936364 18.5775598 55.1936364"></polygon>
                        <polygon id="Path-3" fill="#5D5551" points="20.3785576 33.0314207 34.9844403 27.0474423 20.3785576 34.7241718"></polygon>
                        <polygon id="Path-3" fill="#5D5551" points="20.2672879 27.0474379 33.8476307 20.6166255 20.2672879 29.249884"></polygon>
                        <polygon id="Path-3-Copy-3" fill="#5D5551" points="19.8244152 21.9809422 30.5593283 16.082797 19.8244152 24.0009586"></polygon>
                        <polygon id="Path-3" fill="#5D5551" points="19.9453586 16.2757311 27.3182799 12.7445303 19.9453586 17.6914128"></polygon>
                        <polygon id="Path-3" fill="#5D5551" transform="translate(12.498997, 30.347915) scale(-1, 1) translate(-12.498997, -30.347915) " points="5.34171363 32.4798698 19.6562804 26.2743391 5.34171363 34.4214919"></polygon>
                        <polygon id="Path-3-Copy-2" fill="#5D5551" transform="translate(13.505688, 24.743773) scale(-1, 1) translate(-13.505688, -24.743773) " points="7.14915447 27.2839135 19.8622219 19.8902649 7.14915447 29.5972807"></polygon>
                        <polygon id="Path-3-Copy" fill="#5D5551" transform="translate(14.615339, 19.947721) scale(-1, 1) translate(-14.615339, -19.947721) " points="9.12795383 22.0786964 20.1027233 16.2569741 9.12795383 23.6384682"></polygon>
                        <polygon id="Path-3-Copy-4" fill="#5D5551" transform="translate(17.163447, 15.586265) scale(-1, 1) translate(-17.163447, -15.586265) " points="14.3898442 17.0432249 19.9370498 13.0628807 14.3898442 18.1096496"></polygon>
                    </g>
                </g>
                <g id="Group-4" transform="translate(1040.730029, 75.474532)">
                    <ellipse id="Oval-3" fill-opacity="0.138218976" fill="#5D5551" cx="39.816394" cy="108.026374" rx="20.3108169" ry="10.4832805"></ellipse>
                    <g id="Group" transform="translate(0.391609, 0.609196)">
                        <circle id="Oval-4" fill="#C9DED3" cx="39.4230874" cy="39.0830378" r="38.6833193"></circle>
                        <polygon id="Triangle-2" fill="#5D5551" points="39.2136888 20.3590141 41.8632312 108.631501 36.5641464 108.631501"></polygon>
                        <polygon id="Path-3" fill="#5D5551" points="40.1088503 65.0120745 68.855986 53.2344748 40.1088503 68.3437285"></polygon>
                        <polygon id="Path-3" fill="#5D5551" points="39.8898505 53.2344662 66.61853 40.5774129 39.8898505 57.569296"></polygon>
                        <polygon id="Path-3-Copy-3" fill="#5D5551" points="39.0181933 43.2626457 60.1465298 31.653982 39.0181933 47.2384195"></polygon>
                        <polygon id="Path-3" fill="#5D5551" points="39.2562329 32.0337127 53.7675343 25.0836427 39.2562329 34.8200417"></polygon>
                        <polygon id="Path-3" fill="#5D5551" transform="translate(24.600387, 59.730429) scale(-1, 1) translate(-24.600387, -59.730429) " points="10.5135013 63.9265182 38.6872724 51.7128618 10.5135013 67.7479971"></polygon>
                        <polygon id="Path-3-Copy-2" fill="#5D5551" transform="translate(26.581745, 48.700418) scale(-1, 1) translate(-26.581745, -48.700418) " points="14.0708862 53.6998949 39.0926041 39.147798 14.0708862 58.2530384"></polygon>
                        <polygon id="Path-3-Copy" fill="#5D5551" transform="translate(28.765747, 39.260883) scale(-1, 1) translate(-28.765747, -39.260883) " points="17.9655371 43.4550445 39.5659562 31.9967955 17.9655371 46.52497"></polygon>
                        <polygon id="Path-3-Copy-4" fill="#5D5551" transform="translate(33.780905, 30.676714) scale(-1, 1) translate(-33.780905, -30.676714) " points="28.3219311 33.5442856 39.2398796 25.7102164 28.3219311 35.6432108"></polygon>
                    </g>
                </g>
                <g id="Group-4" transform="translate(936.998991, 120.149754)">
                    <ellipse id="Oval-3" fill-opacity="0.138218976" fill="#5D5551" cx="44.5646631" cy="120.908964" rx="22.7329656" ry="11.7334549"></ellipse>
                    <g id="Group" transform="translate(0.438309, 0.681845)">
                        <circle id="Oval-4" fill="#779F8B" cx="44.1244532" cy="43.7438512" r="43.2964646"></circle>
                        <polygon id="Triangle-2" fill="#5D5551" points="43.8900829 22.7869105 46.8555941 121.586255 40.9245716 121.586255"></polygon>
                        <polygon id="Path-3" fill="#5D5551" points="44.8919961 72.7650325 77.0673463 59.5829054 44.8919961 76.4939999"></polygon>
                        <polygon id="Path-3" fill="#5D5551" points="44.6468796 59.5828958 74.5630644 45.4164367 44.6468796 64.434672"></polygon>
                        <polygon id="Path-3-Copy-3" fill="#5D5551" points="43.6712737 48.4218946 67.3192515 35.4288498 43.6712737 52.8717958"></polygon>
                        <polygon id="Path-3" fill="#5D5551" points="43.9377005 35.853865 60.1795345 28.0749706 43.9377005 38.9724752"></polygon>
                        <polygon id="Path-3" fill="#5D5551" transform="translate(27.534084, 66.853529) scale(-1, 1) translate(-27.534084, -66.853529) " points="11.7672797 71.5500191 43.3008891 57.8798338 11.7672797 75.8272251"></polygon>
                        <polygon id="Path-3-Copy-2" fill="#5D5551" transform="translate(29.751728, 54.508144) scale(-1, 1) translate(-29.751728, -54.508144) " points="15.7488975 60.1038288 43.7545584 43.8163344 15.7488975 65.1999534"></polygon>
                        <polygon id="Path-3-Copy" fill="#5D5551" transform="translate(32.196181, 43.942905) scale(-1, 1) translate(-32.196181, -43.942905) " points="20.1080015 48.6372378 44.2843597 35.8125453 20.1080015 52.0732645"></polygon>
                        <polygon id="Path-3-Copy-4" fill="#5D5551" transform="translate(37.809418, 34.335038) scale(-1, 1) translate(-37.809418, -34.335038) " points="31.6994382 37.5445799 43.919397 28.7762657 31.6994382 39.8938107"></polygon>
                    </g>
                </g>
                <g id="Group-6" transform="translate(750.581698, 168.082229)">
                    <ellipse id="Oval-5" fill="#5D5551" cx="31.3939459" cy="10.0286216" rx="31.3939459" ry="10.0286216"></ellipse>
                    <path d="M2.8694273,14.2230617 C1.02744488,12.9469143 0,11.5260969 0,10.0286216 C0,4.48996684 14.0555484,0 31.3939459,0 C48.7323435,0 62.7878919,4.48996684 62.7878919,10.0286216 C62.7878919,11.5260969 61.760447,12.9469143 59.9184646,14.2230617 C59.1544629,8.92392159 46.6757842,4.70983338 31.3939459,4.70983338 C16.1121077,4.70983338 3.63342898,8.92392159 2.8694273,14.2230617 Z" id="Combined-Shape" fill="#7B726D"></path>
                </g>
                <g id="Group-6" transform="translate(652.647307, 56.704936)">
                    <ellipse id="Oval-5" fill="#5D5551" cx="12.3056833" cy="3.93098215" rx="12.3056833" ry="3.93098215"></ellipse>
                    <path d="M1.12474754,5.57510332 C0.402734059,5.07488377 0,4.517957 0,3.93098215 C0,1.75996066 5.50944206,0 12.3056833,0 C19.1019245,0 24.6113665,1.75996066 24.6113665,3.93098215 C24.6113665,4.517957 24.2086325,5.07488377 23.486619,5.57510332 C23.1871484,3.49796591 18.2958019,1.84614314 12.3056833,1.84614314 C6.3155646,1.84614314 1.4242181,3.49796591 1.12474754,5.57510332 Z" id="Combined-Shape" fill="#7B726D"></path>
                </g>
                <g id="Group-6" transform="translate(215.165223, 188.480251)">
                    <ellipse id="Oval-5" fill="#5D5551" cx="18.5874945" cy="5.93767186" rx="18.5874945" ry="5.93767186"></ellipse>
                    <path d="M1.69890922,8.42108481 C0.60832194,7.66551293 0,6.82428592 0,5.93767186 C0,2.65838624 8.32190476,0 18.5874945,0 C28.8530843,0 37.1749891,2.65838624 37.1749891,5.93767186 C37.1749891,6.82428592 36.5666671,7.66551293 35.4760798,8.42108481 C35.0237354,5.28360927 27.6354519,2.7885632 18.5874945,2.7885632 C9.53953714,2.7885632 2.15125367,5.28360927 1.69890922,8.42108481 Z" id="Combined-Shape" fill="#7B726D"></path>
                </g>
            </g>
        </g>
    </g>
</svg>